<svg width="50" height="50" viewBox="0 0 50 50" fill="none" xmlns="http://www.w3.org/2000/svg">
<path d="M12.1854 18.998C13.2023 17.9895 14.8443 17.9963 15.8529 19.0133L16.5299 19.696L17.2451 19.0022C18.2732 18.005 19.915 18.0299 20.9122 19.058C21.9095 20.086 21.8845 21.7278 20.8565 22.7251L18.2054 25.2968L16.4782 27.0096L12.1701 22.6655C11.1616 21.6485 11.1684 20.0065 12.1854 18.998Z" fill="#426D53"/>
<path d="M32.9334 19.0133C31.9249 17.9963 30.2829 17.9895 29.2659 18.998C28.249 20.0065 28.2421 21.6485 29.2507 22.6655L33.5588 27.0096L35.286 25.2968L37.9371 22.7251C38.9651 21.7278 38.9901 20.086 37.9928 19.058C36.9956 18.0299 35.3537 18.005 34.3257 19.0022L33.6105 19.696L32.9334 19.0133Z" fill="#426D53"/>
<path d="M28.1316 34.0254C28.9531 33.2039 29.4147 32.0896 29.4147 30.9278H31.4352C31.4352 31.6137 31.3251 32.2882 31.1147 32.9278C30.8044 33.8713 30.2758 34.7387 29.5603 35.4542C28.3598 36.6546 26.7316 37.329 25.0339 37.329C23.3362 37.329 21.708 36.6546 20.5075 35.4542C19.792 34.7387 19.2634 33.8713 18.9531 32.9278C18.7427 32.2882 18.6326 31.6137 18.6326 30.9278H20.6532C20.6532 32.0896 21.1147 33.2039 21.9362 34.0254C22.7578 34.847 23.8721 35.3085 25.0339 35.3085C26.1958 35.3085 27.31 34.847 28.1316 34.0254Z" fill="#426D53"/>
<path fill-rule="evenodd" clip-rule="evenodd" d="M49.7441 25.2898C49.7441 38.9369 38.681 50 25.0339 50C11.3869 50 0.32373 38.9369 0.32373 25.2898C0.32373 11.6428 11.3869 0.579651 25.0339 0.579651C38.681 0.579651 49.7441 11.6428 49.7441 25.2898ZM47.7441 25.2898C47.7441 37.8323 37.5764 48 25.0339 48C12.4914 48 2.32373 37.8323 2.32373 25.2898C2.32373 12.7473 12.4914 2.57965 25.0339 2.57965C37.5764 2.57965 47.7441 12.7473 47.7441 25.2898Z" fill="#426D53"/>
</svg>
