<svg width="50" height="50" viewBox="0 0 50 50" fill="none" xmlns="http://www.w3.org/2000/svg">
<path d="M14.556 21.5987C14.1647 21.99 13.9449 22.5207 13.9449 23.0741H11.4998C11.4998 22.374 11.6618 21.6906 11.9651 21.0741C12.1824 20.6322 12.4723 20.2246 12.8271 19.8698C13.6769 19.02 14.8295 18.5426 16.0314 18.5426C17.2332 18.5426 18.3858 19.02 19.2356 19.8698C19.5904 20.2246 19.8803 20.6322 20.0977 21.0741C20.4009 21.6906 20.5629 22.374 20.5629 23.0741H18.1179C18.1179 22.5207 17.898 21.99 17.5067 21.5987C17.1154 21.2074 16.5847 20.9876 16.0314 20.9876C15.478 20.9876 14.9473 21.2074 14.556 21.5987Z" fill="#426D53"/>
<path d="M30.8169 23.0741C30.8169 22.5207 31.0367 21.99 31.428 21.5987C31.8193 21.2074 32.35 20.9876 32.9034 20.9876C33.4567 20.9876 33.9874 21.2074 34.3787 21.5987C34.77 21.99 34.9898 22.5207 34.9898 23.0741H37.4349C37.4349 22.374 37.2729 21.6906 36.9696 21.0741C36.7523 20.6322 36.4624 20.2246 36.1076 19.8698C35.2578 19.02 34.1052 18.5426 32.9034 18.5426C31.7015 18.5426 30.5489 19.02 29.6991 19.8698C29.3443 20.2246 29.0544 20.6322 28.8371 21.0741C28.5338 21.6906 28.3718 22.374 28.3718 23.0741H30.8169Z" fill="#426D53"/>
<path d="M34.7612 32.3449C34.9824 31.2627 34.0667 30.3584 32.9621 30.3584L16.6813 30.3584C15.5767 30.3584 14.661 31.2627 14.8822 32.3449C15.2745 34.2647 16.2302 36.0444 17.6513 37.4499C19.553 39.3307 22.1323 40.3873 24.8217 40.3873C27.5111 40.3873 30.0903 39.3307 31.992 37.4499C33.4132 36.0444 34.3689 34.2647 34.7612 32.3449Z" fill="#426D53"/>
<path fill-rule="evenodd" clip-rule="evenodd" d="M49.4203 24.7102C49.4203 38.3572 38.3572 49.4203 24.7102 49.4203C11.0631 49.4203 0 38.3572 0 24.7102C0 11.0631 11.0631 0 24.7102 0C38.3572 0 49.4203 11.0631 49.4203 24.7102ZM47.4203 24.7102C47.4203 37.2527 37.2527 47.4203 24.7102 47.4203C12.1677 47.4203 2 37.2527 2 24.7102C2 12.1677 12.1677 2 24.7102 2C37.2527 2 47.4203 12.1677 47.4203 24.7102Z" fill="#426D53"/>
</svg>
