<svg width="51" height="50" viewBox="0 0 51 50" fill="none" xmlns="http://www.w3.org/2000/svg">
<path d="M17.0849 18.5378C16.8199 18.0277 16.0889 18.0015 15.787 18.4914L14.3997 20.743C14.3325 20.852 14.2375 20.9419 14.1241 21.0037L12.2974 21.9991C11.7864 22.2776 11.7863 23.0004 12.2971 23.279L14.1244 24.2757C14.2376 24.3374 14.3324 24.4272 14.3996 24.5361L15.7871 26.7869C16.089 27.2767 16.8198 27.2505 17.0848 26.7405L18.2052 24.5838C18.2774 24.4449 18.3928 24.3323 18.5346 24.2625L20.5032 23.2935C21.0511 23.0237 21.051 22.2542 20.503 21.9847L18.5348 21.0168C18.3929 20.947 18.2773 20.8344 18.2051 20.6953L17.0849 18.5378Z" fill="#426D53"/>
<path d="M35.6339 18.5378C35.369 18.0277 34.638 18.0015 34.3361 18.4914L32.9487 20.743C32.8816 20.852 32.7866 20.9419 32.6732 21.0037L30.8464 21.9991C30.3355 22.2776 30.3353 23.0004 30.8462 23.279L32.6734 24.2757C32.7866 24.3374 32.8815 24.4272 32.9487 24.5361L34.3362 26.7869C34.6381 27.2767 35.3689 27.2505 35.6339 26.7405L36.7543 24.5838C36.8264 24.4449 36.9419 24.3323 37.0837 24.2625L39.0523 23.2935C39.6002 23.0237 39.6001 22.2542 39.052 21.9847L37.0839 21.0168C36.9419 20.947 36.8264 20.8344 36.7542 20.6953L35.6339 18.5378Z" fill="#426D53"/>
<path d="M25.6886 41.4607C28.3255 41.4607 30.4631 38.416 30.4631 34.6602C30.4631 30.9043 28.3255 27.8596 25.6886 27.8596C23.0517 27.8596 20.9141 30.9043 20.9141 34.6602C20.9141 38.416 23.0517 41.4607 25.6886 41.4607Z" fill="#426D53"/>
<path fill-rule="evenodd" clip-rule="evenodd" d="M25.6135 50C39.2605 50 50.3237 38.9369 50.3237 25.2898C50.3237 11.6428 39.2605 0.579651 25.6135 0.579651C11.9664 0.579651 0.90332 11.6428 0.90332 25.2898C0.90332 38.9369 11.9664 50 25.6135 50ZM25.6135 48C38.156 48 48.3237 37.8323 48.3237 25.2898C48.3237 12.7473 38.156 2.57965 25.6135 2.57965C13.071 2.57965 2.90332 12.7473 2.90332 25.2898C2.90332 37.8323 13.071 48 25.6135 48Z" fill="#426D53"/>
</svg>
