<svg width="119" height="33" viewBox="0 0 119 33" fill="none" xmlns="http://www.w3.org/2000/svg">
<path fill-rule="evenodd" clip-rule="evenodd" d="M18.372 13.6282L19.678 13.6247L19.6872 12.371H18.387C18.1051 12.371 17.8765 12.1424 17.8765 11.8605V9.294C17.8765 9.01204 18.1051 8.78346 18.387 8.78346L18.3893 8.78347H22.0485L22.0508 8.78346L22.0546 8.78347C22.3353 8.78497 22.5624 9.01297 22.5624 9.29401C22.5624 9.30519 22.5621 9.31628 22.5613 9.32728V11.8272C22.5621 11.8382 22.5624 11.8493 22.5624 11.8605C22.5624 12.1424 22.3328 12.371 22.0508 12.371H20.7083L20.6992 13.6219L22.7653 13.6162C23.0472 13.6155 23.2765 13.8434 23.2772 14.1254C23.278 14.4073 23.05 14.6365 22.7681 14.6373L1.99052 14.6941C1.70855 14.6949 1.47935 14.4669 1.47858 14.185C1.47781 13.903 1.70576 13.6738 1.98772 13.673L3.15632 13.6698L10.1676 2.95575L8.75049 0.790162C8.59609 0.554226 8.66219 0.237798 8.89812 0.0834008C9.13406 -0.0709962 9.45049 -0.00489488 9.60488 0.231041L10.7778 2.02338L11.9507 0.231041C12.1051 -0.00489488 12.4215 -0.0709962 12.6575 0.0834008C12.8934 0.237798 12.9595 0.554226 12.8051 0.790162L11.3879 2.95575L18.372 13.6282ZM6.86736 13.6597L4.3788 13.6665L10.7778 3.88812L17.1539 13.6316L14.5596 13.6387L11.1024 7.84399C11.0808 7.80615 11.0541 7.77083 11.0228 7.73914C10.9758 7.69151 10.9206 7.65446 10.8609 7.6289C10.7965 7.60115 10.7288 7.58769 10.6618 7.58746C10.5877 7.58706 10.5128 7.60278 10.4424 7.63596C10.3894 7.66082 10.3403 7.69491 10.2979 7.73753C10.2638 7.7717 10.2352 7.81009 10.2125 7.85134L6.86736 13.6597ZM11.1701 9.95024L13.3726 13.6419L11.1701 13.6479L11.1701 9.95024ZM18.8976 11.3499H21.5403V9.80455H18.8976V11.3499ZM10.149 10.0076L10.149 13.6507L8.04753 13.6565L10.149 10.0076Z" fill="#003616"/>
<path d="M24.9671 14.7418C24.6852 14.7414 24.4569 14.5126 24.4572 14.2306L24.4575 14.035C24.4578 13.7531 24.6867 13.5248 24.9687 13.5251C25.2506 13.5255 25.4789 13.7543 25.4786 14.0363L25.4783 14.2319C25.478 14.5139 25.2491 14.7421 24.9671 14.7418Z" fill="#003616"/>
<path fill-rule="evenodd" clip-rule="evenodd" d="M103.073 9.79889L102.202 9.79995L102.193 9.80005C101.593 9.75581 101.068 9.88918 100.677 10.2184C100.25 10.5792 100.064 11.1078 100.064 11.6617H100.081L100.081 14.7644C100.081 14.8656 100.112 14.9595 100.165 15.0375C100.191 15.0766 100.223 15.1117 100.259 15.1416C100.344 15.2111 100.452 15.2528 100.57 15.2528H102.663C103.029 15.9351 103.749 16.399 104.578 16.399C105.406 16.399 106.127 15.9351 106.493 15.2528H111.709C112.075 15.9351 112.796 16.399 113.624 16.399C114.457 16.399 115.18 15.9308 115.544 15.2434C115.575 15.2496 115.607 15.2528 115.64 15.2528H117.576C117.586 15.2528 117.595 15.2526 117.605 15.252C117.614 15.2526 117.623 15.2528 117.633 15.2528C117.902 15.2528 118.121 15.0342 118.121 14.7644L118.121 11.4399C118.121 11.3777 118.109 11.3182 118.088 11.2635C117.968 10.712 117.663 10.3359 117.31 10.1027C117.032 9.91954 116.734 9.82929 116.483 9.79705C116.445 9.78767 116.406 9.78271 116.365 9.78276L116.286 9.78285L116.258 9.78278L115.18 9.7842L113.858 6.65068C113.849 6.62535 113.839 6.60094 113.827 6.57763L113.313 5.3588C113.21 5.03345 112.977 4.73913 112.703 4.52484C112.523 4.38432 112.309 4.26425 112.071 4.18681C111.992 4.13149 111.895 4.09904 111.792 4.09904H111.63C111.585 4.09561 111.539 4.09384 111.493 4.09384V4.09904H106.48L106.467 4.09922C106.025 4.09323 105.68 4.2494 105.439 4.48938C105.272 4.65472 105.168 4.84674 105.11 5.02296L103.073 9.79889ZM111.586 5.07587C111.77 5.09639 111.95 5.17649 112.101 5.29414C112.215 5.38393 112.292 5.47894 112.338 5.55812C112.34 5.5642 112.342 5.57027 112.345 5.57632L112.35 5.59053L112.656 6.31606L105.615 6.32765L106.02 5.37842L106.025 5.37903L106.026 5.37096L106.027 5.36361L106.03 5.35438C106.035 5.34097 106.039 5.32747 106.043 5.31391C106.059 5.27255 106.086 5.22334 106.127 5.18217C106.178 5.13144 106.28 5.06171 106.507 5.07834L106.508 5.07587H111.586ZM116.28 10.7597L102.24 10.7767L102.238 10.7859C101.751 10.725 101.465 10.8318 101.307 10.965C101.187 11.0664 101.094 11.2224 101.058 11.4442L101.058 14.276H102.406C102.406 14.2597 102.406 14.2434 102.406 14.227C102.406 13.0274 103.378 12.055 104.578 12.055C105.777 12.055 106.75 13.0274 106.75 14.227C106.75 14.2434 106.75 14.2597 106.749 14.276H111.453L111.452 14.2559L111.452 14.227C111.452 13.0274 112.425 12.055 113.624 12.055C114.824 12.055 115.796 13.0274 115.796 14.227L115.796 14.2557L115.796 14.276H117.144L117.144 11.5244C117.088 11.201 116.932 11.0238 116.771 10.9178C116.596 10.802 116.398 10.7621 116.28 10.7597ZM104.136 9.7976L108.658 9.79211L108.658 7.29947L105.198 7.30517L104.136 9.7976ZM109.634 9.79093L114.12 9.78548L113.068 7.29222L109.634 7.29787V9.79093ZM104.578 15.4222C105.238 15.4222 105.773 14.8871 105.773 14.227C105.773 13.5669 105.238 13.0318 104.578 13.0318C103.918 13.0318 103.383 13.5669 103.383 14.227C103.383 14.8871 103.918 15.4222 104.578 15.4222ZM113.624 15.4222C113.193 15.4222 112.815 15.1937 112.605 14.8511C112.61 14.823 112.612 14.794 112.612 14.7644C112.612 14.6154 112.546 14.482 112.44 14.3924C112.433 14.3383 112.429 14.2831 112.429 14.227C112.429 13.5669 112.964 13.0318 113.624 13.0318C114.284 13.0318 114.819 13.5669 114.819 14.227C114.819 14.8871 114.284 15.4222 113.624 15.4222Z" fill="#003616"/>
<path d="M98.7197 14.1783C98.9893 14.1858 99.2139 13.9732 99.2214 13.7036C99.2289 13.4339 99.0163 13.2093 98.7467 13.2018L98.623 13.1984C98.3534 13.191 98.1288 13.4035 98.1213 13.6732C98.1138 13.9428 98.3264 14.1674 98.596 14.1749L98.7197 14.1783Z" fill="#003616"/>
<path d="M95.8085 13.0669C96.0419 13.2144 96.3507 13.1448 96.4983 12.9114C96.6458 12.678 96.5762 12.3692 96.3428 12.2216L86.44 5.96187C83.6235 4.18148 80.1291 3.84362 77.0236 5.05142L58.8138 12.1338C56.1048 13.1874 53.0625 12.9428 50.5566 11.47L45.5231 8.5117C42.224 6.57267 38.1311 6.58209 34.8409 8.53626L26.465 13.511C26.2276 13.652 26.1495 13.9588 26.2905 14.1962C26.4315 14.4336 26.7383 14.5118 26.9757 14.3708L35.3516 9.39605C38.3284 7.62798 42.0315 7.61947 45.0164 9.37382L50.0499 12.3322C52.8196 13.96 56.1821 14.2303 59.1763 13.0658L77.3861 5.98342C80.1958 4.89064 83.3574 5.19632 85.9057 6.80715L95.8085 13.0669Z" fill="#003616"/>
<path d="M6.44531 32.5779H15.459V30.5759H6.44531C5.75521 30.5759 5.13346 30.4457 4.58008 30.1853C4.0332 29.9249 3.56771 29.5701 3.18359 29.1208C2.80599 28.6651 2.51302 28.1345 2.30469 27.529C2.10286 26.9171 2.00195 26.266 2.00195 25.5759C2.00195 24.8858 2.10286 24.238 2.30469 23.6326C2.51302 23.0271 2.80599 22.4997 3.18359 22.0505C3.56771 21.5948 4.0332 21.2367 4.58008 20.9763C5.13346 20.7094 5.75521 20.5759 6.44531 20.5759H15.459V18.574H6.44531C5.47526 18.574 4.5931 18.7595 3.79883 19.1306C3.00456 19.4952 2.32422 19.9965 1.75781 20.6345C1.19792 21.266 0.764974 22.0082 0.458984 22.8611C0.152995 23.7074 0 24.6124 0 25.5759C0 26.546 0.152995 27.4574 0.458984 28.3103C0.764974 29.1632 1.19792 29.9053 1.75781 30.5368C2.32422 31.1684 3.00456 31.6664 3.79883 32.031C4.5931 32.3956 5.47526 32.5779 6.44531 32.5779Z" fill="#003616"/>
<path d="M31.8066 32.5779H33.8086V18.574H24.6289C23.9844 18.574 23.3659 18.6586 22.7734 18.8279C22.181 18.9906 21.6243 19.225 21.1035 19.531C20.5892 19.837 20.1172 20.2048 19.6875 20.6345C19.2643 21.0577 18.8997 21.5297 18.5938 22.0505C18.2943 22.5648 18.0599 23.1215 17.8906 23.7204C17.7279 24.3129 17.6465 24.9314 17.6465 25.5759V32.5779H19.6484V25.5759C19.6484 24.8858 19.7786 24.238 20.0391 23.6326C20.306 23.0271 20.6641 22.4997 21.1133 22.0505C21.5625 21.5948 22.0898 21.2367 22.6953 20.9763C23.3008 20.7094 23.9453 20.5759 24.6289 20.5759H31.8066V26.5818H20.6348V28.574H31.8066V32.5779Z" fill="#003616"/>
<path d="M45.2441 32.5779H47.2461V25.5759C47.2461 24.8858 47.3763 24.238 47.6367 23.6326C47.9036 23.0271 48.2617 22.4997 48.7109 22.0505C49.1667 21.5948 49.6973 21.2367 50.3027 20.9763C50.9082 20.7094 51.556 20.5759 52.2461 20.5759H53.3301V32.5779H55.332V18.574H52.2461C51.6081 18.574 50.9928 18.6586 50.4004 18.8279C49.8145 18.9906 49.2643 19.2217 48.75 19.5212C48.2357 19.8207 47.7669 20.1788 47.3438 20.5954C46.9206 21.0121 46.556 21.4743 46.25 21.9822C45.9375 21.4743 45.5697 21.0121 45.1465 20.5954C44.7233 20.1788 44.2546 19.8207 43.7402 19.5212C43.2259 19.2217 42.6725 18.9906 42.0801 18.8279C41.4941 18.6586 40.8822 18.574 40.2441 18.574H37.168V32.5779H39.1699V20.5759H40.2441C40.9342 20.5759 41.582 20.7094 42.1875 20.9763C42.7995 21.2367 43.3301 21.5948 43.7793 22.0505C44.235 22.4997 44.5931 23.0271 44.8535 23.6326C45.1139 24.238 45.2441 24.8858 45.2441 25.5759V32.5779Z" fill="#003616"/>
<path d="M74.4531 25.5271C74.7201 24.9151 74.8535 24.2641 74.8535 23.574C74.8535 22.8839 74.7201 22.2361 74.4531 21.6306C74.1927 21.0251 73.8346 20.4978 73.3789 20.0486C72.9297 19.5928 72.4023 19.2348 71.7969 18.9743C71.1914 18.7074 70.5436 18.574 69.8535 18.574H58.6914V32.5779H60.6934V20.5759H69.8535C70.2702 20.5759 70.6608 20.654 71.0254 20.8103C71.39 20.9665 71.7057 21.1814 71.9727 21.4548C72.2461 21.7217 72.4609 22.0375 72.6172 22.4021C72.7734 22.7667 72.8516 23.1573 72.8516 23.574C72.8516 23.9906 72.7734 24.3845 72.6172 24.7556C72.4609 25.1202 72.2461 25.4392 71.9727 25.7126C71.7057 25.9861 71.39 26.2042 71.0254 26.3669C70.6608 26.5232 70.2702 26.6013 69.8535 26.6013H61.8164V28.574H69.8535C70.5436 28.574 71.1914 28.4438 71.7969 28.1833C72.4023 27.9229 72.9297 27.5681 73.3789 27.1189C73.8346 26.6632 74.1927 26.1326 74.4531 25.5271Z" fill="#003616"/>
<path d="M77.0312 32.5779H79.0332V18.574H77.0312V32.5779Z" fill="#003616"/>
<path d="M82.4023 32.5779H84.4043V20.654C85.1595 20.7712 85.9668 21.0056 86.8262 21.3572C87.6855 21.7022 88.5384 22.1449 89.3848 22.6853C90.2376 23.2257 91.0547 23.8539 91.8359 24.5701C92.6172 25.2797 93.3073 26.0577 93.9062 26.904C94.5052 27.7504 94.9837 28.6521 95.3418 29.6091C95.6999 30.5596 95.8789 31.5492 95.8789 32.5779H97.8809V18.574H95.8789V26.279C95.3841 25.5173 94.8242 24.8012 94.1992 24.1306C93.5742 23.4535 92.9069 22.8285 92.1973 22.2556C91.4876 21.6827 90.752 21.1716 89.9902 20.7224C89.235 20.2667 88.4766 19.8793 87.7148 19.5603C86.9531 19.2413 86.2044 18.9971 85.4688 18.8279C84.7396 18.6586 84.0495 18.574 83.3984 18.574H82.4023V32.5779Z" fill="#003616"/>
<path d="M106.895 32.5779H115.908V24.5798H105.43V26.5818H113.906V30.5759H106.895C106.204 30.5759 105.583 30.4457 105.029 30.1853C104.482 29.9249 104.017 29.5701 103.633 29.1208C103.255 28.6651 102.962 28.1345 102.754 27.529C102.552 26.9171 102.451 26.266 102.451 25.5759C102.451 24.8858 102.552 24.238 102.754 23.6326C102.962 23.0271 103.255 22.4997 103.633 22.0505C104.017 21.5948 104.482 21.2367 105.029 20.9763C105.583 20.7094 106.204 20.5759 106.895 20.5759H115.908V18.574H106.895C105.924 18.574 105.042 18.7595 104.248 19.1306C103.454 19.4952 102.773 19.9965 102.207 20.6345C101.647 21.266 101.214 22.0082 100.908 22.8611C100.602 23.7074 100.449 24.6124 100.449 25.5759C100.449 26.546 100.602 27.4574 100.908 28.3103C101.214 29.1632 101.647 29.9053 102.207 30.5368C102.773 31.1684 103.454 31.6664 104.248 32.031C105.042 32.3956 105.924 32.5779 106.895 32.5779Z" fill="#003616"/>
</svg>
