<svg width="25" height="15" viewBox="0 0 25 15" fill="none" xmlns="http://www.w3.org/2000/svg">
<path fill-rule="evenodd" clip-rule="evenodd" d="M18.9578 13.8633L17.5974 13.8669L10.3223 3.00752L11.7985 0.804001C11.9593 0.563933 11.8904 0.241963 11.6447 0.0848616C11.3989 -0.0722397 11.0693 -0.00498062 10.9085 0.235087L9.68668 2.05882L8.4649 0.235087C8.30407 -0.00498062 7.97446 -0.0722397 7.72869 0.0848616C7.48293 0.241963 7.41407 0.563933 7.5749 0.804001L9.05112 3.00752L1.74765 13.9093L0.530363 13.9125C0.23665 13.9133 -0.000799372 14.1465 2.02258e-06 14.4334C0.000806867 14.7203 0.239559 14.9523 0.533271 14.9515L22.1766 14.8937C22.4703 14.8929 22.7077 14.6597 22.7069 14.3728C22.7061 14.0859 22.4674 13.8539 22.1737 13.8547L20.0214 13.8605L20.031 12.5877H21.4294C21.7231 12.5877 21.9623 12.3551 21.9623 12.0682C21.9623 12.0568 21.962 12.0456 21.9612 12.0344V9.49065C21.962 9.47946 21.9623 9.46817 21.9623 9.45679C21.9623 9.17083 21.7258 8.93883 21.4334 8.93732L21.4294 8.9373L21.4271 8.93731H17.6153L17.613 8.9373C17.3192 8.9373 17.0811 9.16989 17.0811 9.45679V12.0682C17.0811 12.3551 17.3192 12.5877 17.613 12.5877H18.9673L18.9578 13.8633ZM3.02106 13.9059L5.61331 13.8989L9.09781 7.98885C9.12147 7.94688 9.15125 7.90782 9.18678 7.87305C9.23098 7.82969 9.28209 7.795 9.33731 7.76971C9.41065 7.73594 9.48868 7.71995 9.56581 7.72035C9.63565 7.72059 9.70619 7.73428 9.77329 7.76252C9.83546 7.78852 9.89292 7.82623 9.94186 7.87469C9.97453 7.90694 10.0023 7.94287 10.0249 7.98138L13.6261 13.8775L16.3285 13.8703L9.68668 3.95622L3.02106 13.9059ZM12.3896 13.8808L10.0953 10.1245L10.0953 13.887L12.3896 13.8808ZM20.8976 11.5487H18.1448V9.97628H20.8976V11.5487ZM9.03167 13.8898L9.03166 10.1829L6.84266 13.8957L9.03167 13.8898Z" fill="#640718"/>
<path d="M23.9361 14.4799C23.9357 14.7668 24.1735 14.9996 24.4673 15C24.761 15.0004 24.9994 14.7681 24.9997 14.4812L25 14.2821C25.0004 13.9952 24.7626 13.7624 24.4689 13.762C24.1751 13.7616 23.9367 13.9939 23.9364 14.2808L23.9361 14.4799Z" fill="#640718"/>
</svg>
