<svg width="306" height="290" viewBox="0 0 306 290" fill="none" xmlns="http://www.w3.org/2000/svg">
<path fill-rule="evenodd" clip-rule="evenodd" d="M153.14 35.0626C146.692 35.0626 141.465 29.8354 141.465 23.3873C141.465 16.9392 146.692 11.712 153.14 11.712C159.588 11.712 164.816 16.9392 164.816 23.3873C164.816 29.8354 159.588 35.0626 153.14 35.0626ZM147.851 23.3873C147.851 26.3086 150.219 28.6768 153.14 28.6768C156.062 28.6768 158.43 26.3086 158.43 23.3873C158.43 20.466 156.062 18.0978 153.14 18.0978C150.219 18.0978 147.851 20.466 147.851 23.3873Z" fill="#4F4F4F"/>
<path fill-rule="evenodd" clip-rule="evenodd" d="M145.784 60.0171L146.993 62.1008C145.042 62.6052 143.247 63.3553 141.7 64.3194C138.704 66.1865 136.214 69.1771 136.214 73.0189C136.214 76.8606 138.704 79.8513 141.7 81.7183C144.742 83.6142 148.745 84.6825 153 84.6825C157.254 84.6825 161.258 83.6142 164.3 81.7183C167.296 79.8513 169.785 76.8606 169.785 73.0189C169.785 69.1771 167.296 66.1865 164.3 64.3194C162.828 63.4022 161.131 62.6788 159.29 62.1762L161.667 57.736L185.942 72.4074L190.253 86.1483C190.428 86.7087 190.755 87.2098 191.198 87.5964L202.7 97.6519L208.366 117.699L195.665 132.214C194.994 132.981 194.729 134.022 194.953 135.017C195.176 136.011 195.86 136.839 196.795 137.245L213.672 144.583L182.65 162.19C181.751 162.7 181.154 163.615 181.05 164.644C180.945 165.673 181.345 166.688 182.124 167.369L220.395 200.857L215.168 242.677C215.019 243.871 215.553 245.046 216.549 245.719C217.546 246.392 218.836 246.449 219.887 245.865L268.827 218.675C269.495 218.305 270.007 217.707 270.272 216.99L280.741 188.637L295.439 197.503L299.636 233.038C299.843 234.789 301.43 236.041 303.181 235.834C304.933 235.627 306.185 234.04 305.978 232.289L301.597 195.202C301.482 194.223 300.92 193.352 300.076 192.842L282.679 182.349L276.337 163.599C276.061 162.781 275.464 162.11 274.684 161.739L246.018 148.101L240.513 123.054C240.366 122.387 240.01 121.785 239.496 121.335L208.026 93.8255C207.763 93.4793 207.433 93.1939 207.062 92.9826L196.077 83.3798L191.673 69.3437C191.44 68.6013 190.944 67.9694 190.278 67.5669L164.685 52.0986L170.589 41.0711C171.302 39.5737 172.446 36.9257 173.388 34.0302C174.288 31.2622 175.135 27.8741 174.986 24.9851C174.975 21.1674 174.214 17.1885 173.089 14.4728C171.981 11.7981 170.357 9.36795 168.31 7.3209C166.263 5.27384 163.833 3.65004 161.158 2.54218C158.484 1.43433 155.617 0.864136 152.722 0.864136C149.827 0.864136 146.96 1.43433 144.286 2.54218C141.611 3.65004 139.181 5.27385 137.134 7.3209C135.087 9.36796 133.463 11.7982 132.355 14.4728C131.664 16.1425 131.439 18.1635 131.347 19.8115C131.268 21.2068 131.274 22.6328 131.279 23.7405L131.281 24.4282C131.281 24.587 131.293 24.7457 131.317 24.9027C131.607 26.8344 132.454 31.6605 133.463 34.3103C134.399 36.768 138.816 46.0329 141.261 50.5217L141.51 51.0454H134.603C133.24 51.0454 132.027 51.9108 131.584 53.1998L116.463 97.1606L78.1445 101.881C76.9012 102.034 75.8624 102.9 75.4879 104.096L60.8144 150.938L25.1094 161.33L24.7165 161.213C23.0265 160.709 21.2483 161.671 20.7449 163.361C20.6116 163.809 20.5811 164.262 20.6396 164.697L0.443654 198.918C-0.452594 200.437 0.0519574 202.394 1.5706 203.291C3.08924 204.187 5.0469 203.682 5.94315 202.164L25.96 168.246L53.432 176.429L41.5285 192.57C40.7418 193.636 40.6959 195.078 41.4132 196.193C42.1305 197.307 43.4618 197.863 44.7586 197.589L88.0669 188.432C89.6585 188.095 90.7427 186.616 90.5842 184.997L87.2665 151.11L100.801 137.576C101.872 136.504 102.043 134.828 101.21 133.562L84.1054 107.581L119.224 103.255C120.436 103.105 121.456 102.278 121.853 101.124L136.881 57.4312H144.544L145.662 59.7848C145.699 59.8639 145.74 59.9414 145.784 60.0171ZM153.353 69.7965C154.51 69.7767 155.566 69.1318 156.113 68.1111L156.165 68.0135C158.06 68.3491 159.689 68.9702 160.923 69.739C162.846 70.9377 163.399 72.1824 163.399 73.0189C163.399 73.8553 162.846 75.1 160.923 76.2988C159.045 77.4687 156.252 78.2967 153 78.2967C149.747 78.2967 146.954 77.4687 145.077 76.2988C143.153 75.1 142.6 73.8553 142.6 73.0189C142.6 72.1824 143.153 70.9377 145.077 69.739C146.426 68.8982 148.248 68.234 150.374 67.9268L150.536 68.2066C151.117 69.208 152.195 69.8164 153.353 69.7965ZM151.373 56.9257L146.913 47.5375C144.547 43.2072 140.228 34.1306 139.431 32.037C138.728 30.1915 137.989 26.2551 137.667 24.1838L137.665 23.6362C137.661 22.5344 137.656 21.3518 137.722 20.17C137.808 18.642 137.999 17.534 138.255 16.9165C139.042 15.0167 140.195 13.2904 141.649 11.8363C143.103 10.3823 144.83 9.22883 146.73 8.44189C148.629 7.65495 150.666 7.24991 152.722 7.24991C154.778 7.24991 156.815 7.65495 158.714 8.44189C160.614 9.22883 162.341 10.3823 163.795 11.8363C165.249 13.2904 166.402 15.0167 167.189 16.9165C167.95 18.7537 168.601 21.9219 168.601 25.0758C168.601 25.1389 168.603 25.2021 168.606 25.2651C168.704 26.9127 168.183 29.3855 167.315 32.0551C166.492 34.5858 165.479 36.9342 164.852 38.2575L153.186 60.0489L151.373 56.9257ZM214.982 117.63L211.514 105.356L234.501 125.451L240.116 150.999C240.328 151.962 240.973 152.773 241.863 153.196L270.721 166.925L276.09 182.797L264.691 213.668L222.285 237.227L226.942 199.967C227.074 198.915 226.674 197.866 225.877 197.168L189.712 165.524L222.384 146.981C223.436 146.384 224.06 145.243 223.996 144.035C223.932 142.826 223.191 141.758 222.081 141.276L203.348 133.131L214.313 120.601C215.024 119.787 215.276 118.669 214.982 117.63ZM79.5959 112.344L66.3967 154.48C66.0771 155.5 65.2684 156.292 64.242 156.591L36.4027 164.694L59.6107 171.607C60.6074 171.904 61.3971 172.667 61.7271 173.653C62.0571 174.64 61.8861 175.725 61.2689 176.562L51.6498 189.605L83.9503 182.775L80.7641 150.23C80.671 149.279 81.0085 148.337 81.6841 147.661L94.4452 134.9L79.5959 112.344Z" fill="#4F4F4F"/>
<path d="M81.1954 201.481C82.2653 200.946 83.5444 201.054 84.5095 201.761L100.863 213.734C102.285 214.775 102.594 216.773 101.553 218.196C100.511 219.619 98.5131 219.928 97.0903 218.886L82.3089 208.064L54.2651 222.086C53.8218 222.307 53.3329 222.423 52.8372 222.423H26.8254L31.9933 243.586C32.2615 244.685 31.9288 245.843 31.1185 246.632L9.21704 267.949C7.95341 269.179 5.93196 269.152 4.70202 267.888C3.47207 266.625 3.49939 264.603 4.76302 263.373L25.3569 243.328L19.6573 219.987C19.4248 219.035 19.6425 218.029 20.2478 217.258C20.8531 216.487 21.7789 216.037 22.7591 216.037H52.0835L81.1954 201.481Z" fill="#4F4F4F"/>
<path fill-rule="evenodd" clip-rule="evenodd" d="M85.8337 238.642C85.8337 242.31 88.8071 245.283 92.475 245.283C96.1429 245.283 99.1163 242.31 99.1163 238.642C99.1163 234.974 96.1429 232 92.475 232C88.8071 232 85.8337 234.974 85.8337 238.642ZM92.475 241.452C90.9232 241.452 89.6652 240.194 89.6652 238.642C89.6652 237.09 90.9232 235.832 92.475 235.832C94.0268 235.832 95.2848 237.09 95.2848 238.642C95.2848 240.194 94.0268 241.452 92.475 241.452Z" fill="#4F4F4F"/>
<path fill-rule="evenodd" clip-rule="evenodd" d="M173.788 250.229C174.925 251.139 176.367 251.683 177.936 251.683C181.604 251.683 184.577 248.71 184.577 245.042C184.577 241.374 181.604 238.4 177.936 238.4C177.397 238.4 176.873 238.465 176.371 238.586L149.944 220.979L187.855 205.181C189.072 206.696 190.94 207.665 193.035 207.665C196.703 207.665 199.676 204.692 199.676 201.024C199.676 197.356 196.703 194.383 193.035 194.383C192.141 194.383 191.288 194.559 190.51 194.879L130.086 150.4L168.797 134.697C169.97 135.741 171.516 136.375 173.21 136.375C176.878 136.375 179.851 133.401 179.851 129.733C179.851 126.066 176.878 123.092 173.21 123.092C172.009 123.092 170.883 123.411 169.911 123.968L152.443 111.688L172.934 109.209C174.151 110.602 175.941 111.482 177.936 111.482C181.604 111.482 184.577 108.508 184.577 104.84C184.577 101.172 181.604 98.1989 177.936 98.1989C177.643 98.1989 177.355 98.2178 177.073 98.2545C177.005 98.1606 176.932 98.0694 176.853 97.9814L167.75 87.844C166.572 86.532 164.553 86.4235 163.241 87.6017C161.929 88.7798 161.821 90.7985 162.999 92.1106L171.913 102.038C171.777 102.328 171.662 102.63 171.57 102.942L147.739 105.825C146.526 104.521 144.796 103.705 142.875 103.705C139.207 103.705 136.233 106.678 136.233 110.346C136.233 114.014 139.207 116.987 142.875 116.987C144.398 116.987 145.801 116.475 146.922 115.612L165.924 128.971L126.943 144.784C125.821 143.917 124.414 143.401 122.886 143.401C119.218 143.401 116.245 146.375 116.245 150.043C116.245 153.71 119.218 156.684 122.886 156.684C124.196 156.684 125.418 156.305 126.447 155.65L185.607 199.2L147.773 214.965C146.559 213.64 144.814 212.809 142.875 212.809C139.207 212.809 136.233 215.782 136.233 219.45C136.233 223.118 139.207 226.091 142.875 226.091C143.758 226.091 144.601 225.919 145.371 225.606L171.591 243.074C171.465 243.479 171.378 243.9 171.332 244.334L107.122 272.152C106.253 271.17 105.216 270.327 104.109 269.637C102.687 268.751 101.055 268.045 99.2852 267.545L107.325 252.528C107.903 251.313 108.828 249.172 109.59 246.827C110.312 244.609 111.019 241.816 110.899 239.387C110.887 236.274 110.268 233.018 109.334 230.763C108.417 228.549 107.073 226.537 105.379 224.843C103.684 223.148 101.672 221.804 99.4583 220.887C97.2442 219.97 94.8712 219.498 92.4748 219.498C90.0784 219.498 87.7054 219.97 85.4913 220.887C83.2773 221.804 81.2656 223.148 79.5711 224.843C77.8765 226.537 76.5323 228.549 75.6152 230.763C75.019 232.202 74.8364 233.908 74.7617 235.236C74.6978 236.373 74.703 237.536 74.707 238.42L74.7086 238.96C74.7086 239.118 74.7205 239.277 74.7441 239.434C74.975 240.97 75.6589 244.891 76.4932 247.081C77.2365 249.032 81.0871 257.605 83.0778 261.249L86.4909 267.501C84.6603 268.004 82.9733 268.725 81.509 269.637C78.513 271.504 76.0236 274.495 76.0236 278.337C76.0236 282.178 78.513 285.169 81.509 287.036C84.5511 288.932 88.5546 290 92.8091 290C97.0635 290 101.067 288.932 104.109 287.036C107.105 285.169 109.595 282.178 109.595 278.337C109.595 278.238 109.593 278.14 109.59 278.042L173.788 250.229ZM175.126 245.042C175.126 246.594 176.384 247.852 177.936 247.852C179.487 247.852 180.745 246.594 180.745 245.042C180.745 243.49 179.487 242.232 177.936 242.232C176.384 242.232 175.126 243.49 175.126 245.042ZM89.6705 273.326C87.7642 273.661 86.1258 274.284 84.8863 275.057C82.9628 276.255 82.4094 277.5 82.4094 278.337C82.4094 279.173 82.9628 280.418 84.8863 281.616C86.7637 282.786 89.5565 283.614 92.8091 283.614C96.0616 283.614 98.8544 282.786 100.732 281.616C102.655 280.418 103.209 279.173 103.209 278.337C103.209 277.5 102.655 276.255 100.732 275.057C99.5406 274.314 97.9807 273.71 96.1688 273.367L95.7497 274.15C95.1962 275.183 94.1205 275.831 92.9478 275.835C91.775 275.84 90.6941 275.202 90.1322 274.172L89.6705 273.326ZM142.875 222.26C141.323 222.26 140.065 221.002 140.065 219.45C140.065 217.898 141.323 216.64 142.875 216.64C144.426 216.64 145.684 217.898 145.684 219.45C145.684 221.002 144.426 222.26 142.875 222.26ZM190.779 202.7L190.256 201.445C190.236 201.308 190.225 201.167 190.225 201.024C190.225 199.472 191.483 198.214 193.035 198.214C194.586 198.214 195.844 199.472 195.844 201.024C195.844 202.576 194.586 203.834 193.035 203.834C192.111 203.834 191.291 203.388 190.779 202.7ZM122.886 152.852C121.334 152.852 120.076 151.594 120.076 150.043C120.076 148.491 121.334 147.233 122.886 147.233C124.438 147.233 125.696 148.491 125.696 150.043C125.696 151.594 124.438 152.852 122.886 152.852ZM170.4 129.733C170.4 131.285 171.658 132.543 173.21 132.543C174.762 132.543 176.02 131.285 176.02 129.733C176.02 128.182 174.762 126.924 173.21 126.924C171.658 126.924 170.4 128.182 170.4 129.733ZM142.875 113.156C141.323 113.156 140.065 111.898 140.065 110.346C140.065 108.794 141.323 107.536 142.875 107.536C144.426 107.536 145.684 108.794 145.684 110.346C145.684 111.898 144.426 113.156 142.875 113.156ZM175.126 104.84C175.126 106.392 176.384 107.65 177.936 107.65C179.487 107.65 180.745 106.392 180.745 104.84C180.745 103.288 179.487 102.03 177.936 102.03C177.553 102.03 177.188 102.107 176.855 102.246C176.779 102.33 176.698 102.412 176.611 102.49C176.359 102.716 176.082 102.895 175.79 103.026C175.375 103.516 175.126 104.149 175.126 104.84ZM88.6829 258.189L92.9075 265.929L101.588 249.715C102.08 248.674 102.874 246.832 103.518 244.852C104.207 242.733 104.589 240.855 104.519 239.666C104.515 239.603 104.513 239.54 104.513 239.477C104.513 237.028 104.005 234.583 103.435 233.207C102.839 231.767 101.965 230.46 100.863 229.358C99.7615 228.256 98.4538 227.383 97.0145 226.786C95.5753 226.19 94.0327 225.883 92.4748 225.883C90.9169 225.883 89.3744 226.19 87.9351 226.786C86.4958 227.383 85.1881 228.256 84.0865 229.358C82.9849 230.46 82.1111 231.767 81.5149 233.207C81.3545 233.594 81.2054 234.387 81.1374 235.595C81.0856 236.518 81.0892 237.438 81.0927 238.316L81.0941 238.714C81.3547 240.38 81.9311 243.417 82.4607 244.807C83.1065 246.503 86.8387 254.814 88.6829 258.189Z" fill="#4F4F4F"/>
</svg>
